P1
# Created by GIMP version 2.10.14 PNM plug-in
8 16
1000000110000001001111000011110000111100001111000011110000111100000000
0000000000001111000011110000111100001111000011110000111100