P2
# Created by GIMP version 2.10.14 PNM plug-in
16 24
255
2
5
9
12
15
21
24
28
31
35
38
42
45
49
52
57
9
12
16
19
22
26
30
33
36
40
45
49
52
55
59
63
14
17
21
24
28
33
36
40
44
47
50
54
57
61
64
70
19
24
28
31
35
38
42
45
48
52
58
61
64
67
71
75
26
30
33
36
40
43
49
52
55
59
63
66
70
73
76
81
31
36
40
43
47
50
54
57
61
65
68
73
76
80
83
87
38
42
45
49
52
55
61
64
67
71
74
78
81
85
88
92
44
49
52
56
59
62
66
70
73
76
80
85
89
92
96
99
51
54
57
61
64
67
73
76
79
83
87
90
94
97
100
104
55
60
64
68
71
75
78
81
85
88
92
97
100
104
108
111
62
66
69
73
76
80
85
89
92
95
99
102
106
109
113
116
67
71
76
80
83
87
90
94
97
101
104
109
113
116
120
123
74
78
82
85
89
92
96
100
104
107
111
114
118
121
125
129
80
83
89
92
95
99
102
106
109
113
116
120
125
128
132
135
87
90
94
97
101
104
107
113
116
119
123
127
130
133
137
140
92
95
100
104
107
111
114
118
122
125
129
132
137
140
144
148
99
102
106
109
113
117
120
125
128
132
136
139
142
146
149
152
104
108
113
117
120
123
126
130
134
137
140
144
149
153
156
160
111
115
118
121
125
128
132
137
141
144
147
151
154
158
161
165
116
120
123
128
132
135
139
142
146
149
153
156
161
165
168
172
123
126
130
133
137
140
144
148
153
156
160
163
166
170
173
177
128
132
135
141
144
147
151
154
158
161
165
168
172
177
180
184
136
139
143
146
149
153
156
160
165
168
172
175
179
182
186
189
140
144
147
153
156
159
163
166
170
173
177
181
184
189
192
196
