P2
# Created by GIMP version 2.10.14 PNM plug-in
8 16
65535
3553
4319
5276
6959
7799
9574
10534
11421
6149
7869
8719
10402
11398
12296
13973
14895
9560
11274
12224
13170
14921
15637
17507
18381
13048
13984
15803
16489
17414
19230
20162
21770
16522
17444
18364
20154
20874
22785
23564
24452
19210
21003
21875
23687
24458
25400
26981
27950
22678
24406
25366
26312
27939
28850
30604
31485
26279
27113
28803
29697
31506
32357
33123
34927
29735
30532
32344
33245
34010
35747
36740
38358
32290
34158
34890
36770
37567
38515
40195
41034
35728
37518
38461
39294
41079
42002
43635
44512
39370
40297
42028
42843
44578
45372
46342
47967
42816
43723
45338
46326
47137
48952
49884
51613
46199
47136
48043
49781
50672
52338
53245
54267
48932
50647
51582
53269
54257
55110
56831
57598
52379
53370
55145
55832
57717
58576
59438
61139
