P3
# Created by GIMP version 2.10.14 PNM plug-in
27 27
255
52
83
159
50
91
150
78
57
141
71
26
107
87
59
121
84
58
136
82
56
158
107
50
148
127
56
141
109
57
137
129
64
151
152
48
152
168
49
155
135
87
152
111
114
142
112
116
133
105
112
151
104
112
148
109
114
122
88
88
60
69
68
36
109
93
124
136
83
157
158
68
138
167
76
121
169
82
117
168
90
120
46
84
153
52
84
148
79
49
142
73
29
115
89
62
129
77
56
134
81
58
159
108
48
146
126
61
143
107
62
138
117
65
143
139
53
144
168
45
145
157
58
161
138
88
155
127
120
134
114
114
105
80
86
63
68
73
46
92
89
71
124
92
133
144
77
154
161
65
146
176
72
129
177
85
129
171
88
121
170
95
122
54
84
159
64
72
151
84
37
139
75
39
118
85
61
131
70
55
137
84
64
165
112
48
146
125
63
142
106
62
134
111
66
136
130
64
142
150
47
147
169
49
145
160
57
153
141
76
176
131
92
157
131
99
150
132
98
153
132
87
161
148
70
156
164
64
148
180
71
135
182
84
122
171
89
114
167
100
116
168
108
123
59
64
157
69
51
146
86
26
131
77
49
117
76
55
129
72
63
146
84
66
167
115
48
146
128
62
142
110
64
134
107
64
129
122
66
133
127
62
135
154
49
145
171
46
145
167
55
138
156
58
151
160
63
155
164
61
147
170
59
140
175
64
131
177
81
129
170
89
118
166
92
114
172
105
103
163
113
107
157
113
115
83
33
143
81
33
129
79
42
122
77
58
127
66
57
137
78
71
162
88
56
154
122
49
146
130
60
138
109
72
140
101
74
134
113
70
124
118
62
124
133
58
131
145
52
134
154
55
140
164
58
141
167
58
138
168
61
134
171
68
135
162
82
130
155
91
124
148
93
110
153
98
109
167
113
110
162
113
108
152
118
102
80
35
130
82
43
130
76
51
131
68
57
136
70
65
154
83
64
162
103
52
154
130
49
148
126
59
140
108
69
140
94
71
133
101
72
129
112
67
122
116
62
120
119
61
121
118
62
122
118
65
118
121
67
118
125
66
115
132
68
116
138
73
116
136
83
117
136
94
113
139
102
108
158
109
111
164
117
115
151
118
99
72
52
139
65
54
136
62
58
140
69
64
154
82
63
162
100
55
157
118
52
148
130
59
146
113
64
137
103
69
134
98
75
135
94
73
134
102
73
125
101
69
118
99
74
115
94
79
113
96
81
113
93
82
113
98
81
113
107
78
112
116
73
112
121
73
113
133
84
112
139
94
105
147
103
104
158
115
112
154
122
102
72
47
148
73
53
149
80
57
156
90
57
164
99
54
160
119
51
151
128
59
144
109
61
130
98
70
130
112
85
140
105
80
135
93
72
133
91
72
128
94
76
123
93
83
119
90
92
117
88
101
123
85
110
128
84
110
128
86
99
124
85
93
116
101
86
121
114
78
107
136
92
104
139
101
94
146
108
100
154
122
105
93
40
153
93
48
156
98
53
159
105
53
160
114
58
149
124
62
143
110
59
128
99
68
132
99
85
137
95
87
138
100
88
143
95
75
135
93
76
137
87
86
117
88
100
119
91
109
119
99
122
110
106
132
104
107
132
96
100
120
109
89
112
126
80
101
133
98
92
114
131
86
104
131
101
97
120
106
92
144
124
101
97
54
153
97
54
152
109
60
157
116
62
158
114
64
137
105
59
124
101
70
128
96
85
137
86
86
136
89
92
142
87
86
140
89
84
142
80
89
138
78
100
125
88
116
107
111
134
111
132
142
102
136
147
92
130
142
85
125
139
86
94
122
105
85
109
136
94
94
119
126
92
102
131
102
96
109
120
96
117
122
90
89
68
153
89
62
147
92
59
145
91
58
140
90
63
136
89
70
139
84
82
140
77
90
136
74
95
133
78
96
136
79
93
137
80
95
140
75
94
133
84
109
125
108
125
102
131
122
123
128
136
111
112
124
97
96
108
107
104
121
102
96
117
106
87
101
126
96
95
111
125
101
102
119
107
92
106
130
100
114
127
88
80
76
155
86
76
155
83
74
151
78
77
148
74
77
138
70
81
136
72
95
133
76
107
127
66
102
126
73
102
130
73
100
131
72
103
133
70
105
132
77
116
113
119
138
109
129
101
156
134
134
109
111
115
97
96
96
136
93
100
115
93
98
122
89
91
116
106
100
101
122
101
97
112
122
98
113
131
100
127
124
89
84
85
154
80
81
147
77
79
140
76
79
135
77
79
130
76
85
134
78
97
137
83
109
136
75
112
134
77
114
135
76
113
132
76
114
130
72
110
124
75
115
119
115
137
98
132
107
155
127
122
130
123
133
78
106
102
121
98
91
103
97
94
94
106
94
102
113
103
98
122
120
94
139
126
87
149
126
78
140
118
87
83
89
169
88
95
165
88
98
153
89
101
146
86
101
154
87
107
159
88
116
158
82
117
144
79
121
139
88
131
144
89
134
139
89
134
135
80
125
129
71
115
120
97
129
98
126
124
124
141
116
134
130
128
123
125
139
84
130
132
81
127
125
88
130
126
85
136
135
74
138
142
59
151
139
60
167
128
63
142
123
78
72
95
205
73
98
199
77
102
192
82
109
190
87
113
182
87
117
181
88
122
175
87
126
164
87
124
159
92
129
156
89
129
142
87
129
132
89
140
134
75
128
118
79
123
108
109
139
109
130
116
125
135
129
121
138
141
105
137
137
109
138
138
102
137
141
97
141
147
91
149
153
86
148
132
70
163
128
73
131
137
65
71
87
205
74
91
210
78
95
217
80
98
221
78
100
217
78
101
215
80
107
208
84
114
199
91
117
187
94
121
177
93
122
160
91
124
148
82
137
128
85
145
115
74
129
124
75
125
102
108
140
92
127
123
106
123
106
105
132
134
98
146
153
95
138
154
92
132
149
87
125
135
78
143
131
75
136
126
76
127
160
91
89
87
205
90
103
213
84
106
229
82
109
225
83
113
224
85
117
229
87
120
231
83
117
224
80
117
217
81
116
198
86
119
182
93
125
176
86
128
148
87
133
123
74
145
118
77
129
117
73
127
106
93
136
85
132
146
98
137
122
104
115
79
104
116
74
103
140
128
128
136
156
92
127
152
84
131
159
86
137
148
111
82
93
201
83
107
213
81
114
229
92
130
226
90
132
217
92
135
218
92
133
217
87
129
213
84
126
211
83
124
220
81
124
213
80
125
194
91
127
180
87
125
148
78
135
127
83
139
125
72
125
114
68
133
98
97
143
89
143
145
89
159
135
104
95
70
98
108
73
93
144
113
142
137
132
125
149
120
139
124
96
141
76
100
195
73
106
208
78
119
224
93
139
209
107
144
188
105
140
176
108
139
176
111
139
185
105
142
192
95
135
209
80
128
215
75
128
208
79
125
201
85
129
180
83
125
141
77
139
122
84
128
125
72
132
107
95
145
95
131
146
84
155
148
90
135
114
113
103
106
85
95
96
92
108
94
111
104
90
102
97
117
70
77
103
193
70
105
204
79
119
220
97
143
195
89
140
138
94
143
127
99
141
128
100
135
137
106
132
147
105
139
168
97
140
196
73
126
205
68
135
211
75
130
193
88
121
151
76
140
124
74
134
126
72
136
101
86
146
93
101
148
98
129
149
92
148
140
104
137
117
105
102
114
78
104
138
73
97
151
70
98
135
76
86
105
196
74
110
192
77
119
218
96
142
183
93
147
118
96
147
115
99
141
120
104
138
131
110
143
138
102
129
147
101
135
183
80
132
196
68
135
201
82
125
206
83
125
149
81
139
123
77
133
121
73
141
98
79
151
92
88
152
105
93
157
106
102
152
97
126
146
99
142
128
103
116
99
100
106
109
105
120
107
106
86
112
187
71
107
204
79
122
220
94
143
164
97
148
118
90
134
137
92
134
160
87
131
155
99
132
153
97
127
164
89
128
184
75
130
195
74
134
197
85
132
179
80
128
135
76
136
123
69
132
106
74
150
97
82
168
97
91
181
107
90
185
104
89
178
108
97
163
102
116
151
97
142
125
112
140
127
114
145
118
116
82
113
185
72
112
211
87
134
204
94
147
136
94
152
113
84
129
140
88
131
177
77
131
175
86
126
169
84
125
172
77
125
176
80
134
189
80
133
183
79
131
151
79
134
137
68
133
117
71
151
98
90
174
112
96
189
114
90
193
108
94
196
113
90
197
115
90
189
109
94
174
98
122
132
91
150
124
113
110
92
84
77
112
193
80
124
210
90
145
173
92
151
112
84
157
103
84
141
125
82
131
153
75
132
171
78
131
175
79
132
174
84
135
173
84
132
166
82
135
141
79
137
121
71
133
116
72
149
95
86
179
103
100
185
121
103
193
127
100
196
122
97
177
124
98
195
110
93
196
101
93
184
106
113
157
94
130
96
103
107
112
97
77
127
201
94
141
179
88
148
128
84
164
100
71
160
96
64
154
94
65
146
104
73
141
121
76
134
131
78
131
130
80
135
125
74
140
114
71
137
114
67
144
101
70
157
94
84
174
100
99
177
118
109
169
133
100
196
120
98
168
116
96
170
129
104
193
116
102
198
105
97
187
107
110
156
89
116
90
102
116
143
93
89
151
151
91
151
119
92
157
104
88
161
109
97
164
110
90
169
109
80
170
110
71
164
107
74
156
102
71
152
100
73
154
102
72
161
102
73
170
97
76
179
98
82
184
103
92
182
111
99
140
127
104
178
124
107
182
117
107
177
117
102
191
113
96
191
111
95
190
113
94
183
108
112
144
105
105
92
76
123
184
97
93
159
123
101
166
121
106
167
128
100
160
137
100
144
138
106
157
138
105
170
126
98
178
112
92
177
109
86
176
106
86
178
109
87
177
114
94
177
115
92
178
114
98
177
124
100
165
130
97
118
133
105
177
123
113
180
118
128
172
101
101
188
100
95
183
106
98
179
112
97
167
103
98
132
89
117
162
91
136
183
85
